# xmcd
#
# Track frame offsets:
#	150
#	22384
#	45083
#	64719
#
# Disc length: 1142 seconds
#
# Revision: 1
# Processed by: cddbd v1.5PL3 Copyright (c) Steve Scherf et al.
# Submitted via: CDex 1.50Beta5
#
DISCID=2c047404
DTITLE=Mellowhead - ラハイナ
DYEAR=2002
DGENRE=Rock
TTITLE0=ドリフターDQ
TTITLE1=ラハイナ
TTITLE2=Merge
TTITLE3=裸足だって
EXTD=
EXTT0=
EXTT1=
EXTT2=
EXTT3=
PLAYORDER=
